<svg id="Layer_1" data-name="Layer 1" xmlns="http://www.w3.org/2000/svg" viewBox="285 975 5430 2050"><defs><style>.cls-1{fill:#df7f81;}.cls-2{fill:#356c8d;}</style></defs><title>Logo with coloured text transparent backgroun</title><g id="_Group_" data-name="&lt;Group&gt;"><g id="_Group_2" data-name="&lt;Group&gt;"><g id="_Group_3" data-name="&lt;Group&gt;"><path id="_Path_" data-name="&lt;Path&gt;" class="cls-1" d="M2845.14,1607.85a73.2,73.2,0,0,1-40.26-121.42L3072,1189.37a73.19,73.19,0,1,1,107.81,99l-267.1,297.06A73.14,73.14,0,0,1,2845.14,1607.85Z"/></g><g id="_Group_4" data-name="&lt;Group&gt;"><path id="_Path_2" data-name="&lt;Path&gt;" class="cls-1" d="M3181.18,1911.16a73.21,73.21,0,0,1-44.88-119.66l380.42-449.39a73.19,73.19,0,1,1,111.72,94.58L3248,1886.08A73.14,73.14,0,0,1,3181.18,1911.16Z"/></g><g id="_Group_5" data-name="&lt;Group&gt;"><path id="_Path_3" data-name="&lt;Path&gt;" class="cls-1" d="M2435,2170.09a94.88,94.88,0,0,1-67.1-142.77l176.33-292.51c-135.42-323.54,228.4-602.65,244.35-614.66A73.19,73.19,0,0,1,2876.72,1237h0c-3,2.3-301.81,232.65-189.93,457.87a96.1,96.1,0,0,1-3.56,92.82l-128.05,212.43,165.53-36.53a94.25,94.25,0,0,1,70.39,12c126.81,78.69,300.57,140.21,382.46,89.35,149.73-93,171.55-148.28,172.73-150.11a73.19,73.19,0,0,1,122.94,79.45c-5.54,8.57-40.36,84.42-218.45,195-170.26,105.73-421.25-20.79-518.63-78.29L2469.6,2168.9A94.79,94.79,0,0,1,2435,2170.09Z"/></g><g id="_Group_6" data-name="&lt;Group&gt;"><g id="_Group_7" data-name="&lt;Group&gt;"><path id="_Path_4" data-name="&lt;Path&gt;" class="cls-1" d="M3020.79,1765.25a77.87,77.87,0,0,1-39.13-17.86,77.09,77.09,0,0,1-8.27-109.2l183.13-210.53a78.34,78.34,0,0,1,109.92-8.21,77.1,77.1,0,0,1,8.27,109.2l-183.14,210.53A78.17,78.17,0,0,1,3020.79,1765.25Z"/></g><g id="_Group_8" data-name="&lt;Group&gt;"><path id="_Path_5" data-name="&lt;Path&gt;" class="cls-1" d="M3334.44,1407.52a77.39,77.39,0,0,1-42.89-128.63l71.65-82.54a78.35,78.35,0,0,1,110.14-4.39,77.09,77.09,0,0,1,4.42,109.42l-71.66,82.54A78.2,78.2,0,0,1,3334.44,1407.52Z"/></g><ellipse id="_Path_6" data-name="&lt;Path&gt;" class="cls-1" cx="3548.54" cy="1105.07" rx="78.16" ry="77.64"/></g><circle id="_Path_7" data-name="&lt;Path&gt;" class="cls-1" cx="3538.66" cy="1798.2" r="73.39"/><circle id="_Path_8" data-name="&lt;Path&gt;" class="cls-1" cx="3247.91" cy="1096.69" r="73.39" transform="translate(2032.21 4301.96) rotate(-87.89)"/></g><g id="_Group_9" data-name="&lt;Group&gt;"><g id="_Group_10" data-name="&lt;Group&gt;"><path id="_Compound_Path_" data-name="&lt;Compound Path&gt;" class="cls-2" d="M331.5,2408.91H562.92c116.16,0,158.33,69.31,158.33,149.9,0,51.68-22,109.88-76.87,120,46.81,8.5,85.85,55.12,85.85,126.51,0,104.36-47.13,164.86-165.21,164.86H331.5Zm225.1,222.36c38.52,0,59-23.5,59-63.61,0-52-31.78-64.06-59-64.06H439.2v127.67Zm4.2,244.22c32.59,0,62.08-15.46,62.08-75.08,0-41.13-16.64-78.67-62.08-78.67H439.2v153.75Z"/><path id="_Compound_Path_2" data-name="&lt;Compound Path&gt;" class="cls-2" d="M787.28,2408.91h245.56c87.61,0,152.78,41,152.78,175,0,138.94-58.2,155.44-89.37,165.25l106.28,221H1081.72l-92.78-212.39-94.31-10.73v223.12H787.28Zm235,253.79c37.37,0,55.2-11,55.2-78.79,0-63.75-21.46-79.55-55.2-79.55H895V2662.7Z"/><path id="_Compound_Path_3" data-name="&lt;Compound Path&gt;" class="cls-2" d="M1461.91,2405.08c132.65,0,225.08,25.3,225.08,288.31,0,247.66-87.06,279.87-225.08,279.87s-225.78-24.54-225.78-279.87C1236.12,2430.38,1333.09,2405.08,1461.91,2405.08Zm0,469.26c90.09,0,117.73-29.66,117.73-180.94,0-174.86-32.43-189.4-117.73-189.4-83,0-118.43,10.73-118.43,189.4C1343.48,2846.58,1366.05,2874.33,1461.91,2874.33Z"/><path id="_Compound_Path_4" data-name="&lt;Compound Path&gt;" class="cls-2" d="M1759.15,2408.91h103.13v234.62h45.16l142.21-234.62h125.1L2003,2690l171.73,280.14h-125.1l-142.21-231.95H1863v231.95h-103.9Z"/><path id="_Compound_Path_5" data-name="&lt;Compound Path&gt;" class="cls-2" d="M2215.54,2525.45c0-97.4,69-117.57,121.92-116.54,0,0,197.6,5.51,246.94,12.26v88.75H2362.76c-39.87,0-39.87,22.24-39.87,42.94v87.56l226.63,8.09v88.26L2322.89,2744v87.57c.35,40.63,25.3,39.87,47.54,39.87h214v88c-43.44,5.91-239.29,13-239.29,13-50,2.23-129.58-9.12-129.58-112.64Z"/><path id="_Compound_Path_6" data-name="&lt;Compound Path&gt;" class="cls-2" d="M2652.36,2408.91h108.89L2984,2771.6V2408.91h107.35v561.27H2984l-223.47-358.47v358.47H2652.36Z"/></g><g id="_Group_11" data-name="&lt;Group&gt;"><path id="_Compound_Path_7" data-name="&lt;Compound Path&gt;" class="cls-1" d="M3229.8,2406.44h107.89V2648h193.43V2406.44H3639v564.1H3531.12v-223.1H3337.69v223.1H3229.8Z"/><path id="_Compound_Path_8" data-name="&lt;Compound Path&gt;" class="cls-1" d="M3889.68,2406.44h122.73l183.22,564.1H4080.76l-40.07-125H3855.93l-40.69,125h-115.9Zm125.46,343.5-63.39-201.32-67.81,201.32Z"/><path id="_Compound_Path_9" data-name="&lt;Compound Path&gt;" class="cls-1" d="M4253.26,2406.44h109.43l223.83,364.5v-364.5h107.89v564.1H4586.52l-224.6-360.27v360.27H4253.26Z"/><path id="_Compound_Path_10" data-name="&lt;Compound Path&gt;" class="cls-1" d="M4775.78,2406.44h239.71c162.37,0,195.7,144.6,195.7,284.36,0,166.07-58,279.74-195.7,279.74H4775.78ZM5007,2874.32c69.94,0,96.29-71.13,96.29-184.3,0-150.93-36.14-188.42-96.29-188.42H4883.67v372.71Z"/><path id="_Compound_Path_11" data-name="&lt;Compound Path&gt;" class="cls-1" d="M5277.37,2547.46c0-111.74,66.28-144.38,152.58-145.65,81.11-1.69,173.55,9.14,218.09,22.32v84.81c-49.32-4.36-160.45-7.71-188.42-7.71-47.17-1-74.37,2.24-74.37,54.72v27.55c0,44.7,17.1,54.32,60.8,54.32h89.08c110.55,0,133.36,87.16,133.36,149.51v37.56c0,128.08-79.8,151.81-156.09,151.81-96.25,0-159.33-5.9-217.67-23.08v-84.81c30.83,3.08,124.81,8.48,196.47,8.48,32.45,0,69.4-5.36,69.4-48.59v-30.36c0-32.06-9.71-52.63-50.9-52.63H5423c-136,0-145.65-100.46-145.65-149.5Z"/></g></g></g></svg>