<?xml version="1.0" encoding="UTF-8"?>
<svg width="66px" height="57px" viewBox="0 0 66 57" version="1.1" xmlns="http://www.w3.org/2000/svg" xmlns:xlink="http://www.w3.org/1999/xlink">
    <!-- Generator: Sketch 48.2 (47327) - http://www.bohemiancoding.com/sketch -->
    <title>Shape</title>
    <desc>Created with Sketch.</desc>
    <defs></defs>
    <g id="vapor.codes" stroke="none" stroke-width="1" fill="none" fill-rule="evenodd" transform="translate(-607.000000, -759.000000)">
        <g id="black-section" transform="translate(0.000000, 695.000000)" fill="#FE8B82" fill-rule="nonzero">
            <g id="Group-12" transform="translate(116.000000, 64.000000)">
                <path d="M511.564084,53.3885558 C502.856769,49.8174149 495.63155,43.5679184 491,36.4256367 C493.223144,38.2112071 495.816812,39.6396635 498.595743,40.8895628 C509.702201,45.9070157 520.806806,45.5641862 528.619305,40.9020618 C517.492468,32.6759388 508.044106,21.9625163 501.004149,13.2132212 C499.522053,11.7847648 498.410481,9.99919439 497.298909,8.39218101 C505.820961,15.8915768 519.345089,25.3551001 524.161901,28.0334557 C513.97249,17.6771472 504.894651,4.82104015 505.265175,5.17815424 C521.382971,20.891174 536.389194,29.8190261 536.389194,29.8190261 C536.887549,30.0886473 537.269189,30.3136291 537.578576,30.513613 C537.902785,29.7172486 538.186236,28.8905295 538.427076,28.0334557 C541.020745,18.9270465 538.056552,8.57073805 531.572382,0 C546.578605,8.74929509 555.471182,25.176543 551.765942,38.9254353 C551.667753,39.296834 551.564006,39.6628759 551.450996,40.0217756 C551.493607,40.0735571 551.536217,40.1235531 551.58068,40.1753346 C558.99116,49.1031867 556.953278,58.56671 556.026968,56.7811396 C552.006782,49.2013931 544.564807,51.5190635 540.783609,53.0564397 C533.008162,57.386448 522.318544,57.831055 511.564084,53.3885558 Z" id="Shape"></path>
            </g>
        </g>
    </g>
</svg>