<?xml version="1.0" encoding="UTF-8"?>
<svg width="209px" height="55px" viewBox="0 0 209 55" version="1.1" xmlns="http://www.w3.org/2000/svg" xmlns:xlink="http://www.w3.org/1999/xlink">
    <title>Vapor 3</title>
    <desc>A Web Framework for Swift.</desc>
    <defs>
        <linearGradient x1="0%" y1="0%" x2="0%" y2="57.6569262%" id="linearGradient-1">
            <stop stop-color="#DF43F6" offset="0%"></stop>
            <stop stop-color="#43C4FC" offset="100%"></stop>
        </linearGradient>
    </defs>
    <g id="vapor.codes" stroke="none" stroke-width="1" fill="none" fill-rule="evenodd" transform="translate(-65.000000, -35.000000)">
        <g id="Group-3" transform="translate(65.000000, 35.000000)">
            <g id="Group-2">
                <path d="M19.4685991,55 C19.4685991,55 39,30.4562762 39,19.6202895 C39,8.78430284 30.2695527,0 19.5,0 C8.73044739,0 0,8.78430284 0,19.6202895 C0,30.4562762 19.4685991,55 19.4685991,55 Z" id="Shape" fill="url(#linearGradient-1)" fill-rule="nonzero" transform="translate(19.500000, 27.500000) scale(-1, 1) rotate(-180.000000) translate(-19.500000, -27.500000) "></path>
                <path d="M19.4685991,55 C19.4685991,55 39,30.4562762 39,19.6202895 C39,8.78430284 30.2695527,0 19.5,0 C8.73044739,0 0,8.78430284 0,19.6202895 C0,30.4562762 19.4685991,55 19.4685991,55 Z" id="Shape" fill="url(#linearGradient-1)" fill-rule="nonzero" transform="translate(19.500000, 27.500000) scale(-1, 1) rotate(-180.000000) translate(-19.500000, -27.500000) "></path>
                <text id="VAPOR" font-family="Roboto-Bold, Roboto" font-size="48" font-weight="bold" fill="#000000">
                    <tspan x="53" y="46">VAPOR</tspan>
                </text>
            </g>
        </g>
    </g>
</svg>
