<?xml version="1.0" encoding="UTF-8"?>
<svg width="53px" height="60px" viewBox="0 0 53 60" version="1.1" xmlns="http://www.w3.org/2000/svg" xmlns:xlink="http://www.w3.org/1999/xlink">
    <!-- Generator: Sketch 48.2 (47327) - http://www.bohemiancoding.com/sketch -->
    <title>Shape</title>
    <desc>Created with Sketch.</desc>
    <defs></defs>
    <g id="vapor.codes" stroke="none" stroke-width="1" fill="none" fill-rule="evenodd" transform="translate(-991.000000, -759.000000)">
        <g id="black-section" transform="translate(0.000000, 695.000000)" fill="#E981F8" fill-rule="nonzero">
            <g id="Group-12" transform="translate(116.000000, 64.000000)">
                <path d="M927.500133,48.3117942 L906.381374,30.9293344 C905.777981,30.3299392 905.777981,29.4308465 906.381374,29.1311489 L927.500133,11.748689 C928.103526,11.4489914 928.103526,10.5498987 927.801829,9.95050352 C922.069595,3.35715668 913.320395,-0.538911906 903.967802,0.0604832617 C888.279581,0.659878429 875.608326,13.8465721 875.004933,29.1311489 C874.703236,46.2139112 888.279581,60 905.174588,60 C914.225484,60 922.069595,56.1039314 927.801829,49.8102822 C928.103526,49.5105846 928.103526,48.6114918 927.500133,48.3117942 Z M899.140657,12.0483866 C899.140657,8.75171319 901.855926,6.05443494 905.174588,6.05443494 C908.49325,6.05443494 911.208519,8.75171319 911.208519,12.0483866 C911.208519,15.34506 908.49325,18.0423383 905.174588,18.0423383 C901.855926,18.0423383 899.140657,15.34506 899.140657,12.0483866 Z" id="Shape"></path>
            </g>
        </g>
    </g>
</svg>