<?xml version="1.0" encoding="UTF-8"?>
<svg width="60px" height="60px" viewBox="0 0 60 60" version="1.1" xmlns="http://www.w3.org/2000/svg" xmlns:xlink="http://www.w3.org/1999/xlink">
    <!-- Generator: Sketch 48.2 (47327) - http://www.bohemiancoding.com/sketch -->
    <title>Shape</title>
    <desc>Created with Sketch.</desc>
    <defs></defs>
    <g id="vapor.codes" stroke="none" stroke-width="1" fill="none" fill-rule="evenodd" transform="translate(-255.000000, -759.000000)">
        <g id="black-section" transform="translate(0.000000, 695.000000)" fill="#81D8FD" fill-rule="nonzero">
            <g id="Group-12" transform="translate(116.000000, 64.000000)">
                <path d="M197.895375,1.10462407 C191.812798,-2.63403408 178.095129,3.37606932 166.246172,15.2250704 C163.96499,17.5062318 161.905811,19.8548686 160.098864,22.1939754 L151.151861,19.6072494 L146.769701,31.7800423 L153.586394,34.7014812 L150.178047,41.0313343 L157.968622,48.8219068 L164.298477,45.4135615 L167.219986,52.2303211 L179.392789,47.8480939 L176.806007,38.9010926 C179.145101,37.094078 181.493766,35.0350372 183.774948,32.7538552 C195.623902,20.9048817 201.634042,7.18715404 197.895375,1.10462407 Z M187.670201,11.3297566 C189.552618,13.2121173 189.552549,16.2641485 187.670201,18.1465231 C185.787923,20.0288769 182.735856,20.0288632 180.853509,18.1465368 C178.971092,16.2641348 178.971092,13.2121036 180.85344,11.3297497 C182.735856,9.44741648 185.787854,9.44737517 187.670201,11.3297566 Z M148.199985,44.4701156 C145.988419,44.5793958 143.705653,45.556032 141.900566,47.3611874 C138.647361,50.6144609 138.087463,55.4226538 140.439915,58.5601742 C143.57723,60.9124882 148.385562,60.3526593 151.638836,57.0993859 C153.443923,55.2942994 154.420628,53.0116025 154.52984,50.7999687 C152.767239,51.565619 150.645398,51.2368831 149.204234,49.7957198 C147.76307,48.3545565 147.434334,46.2327157 148.199985,44.4701156 Z" id="Shape"></path>
            </g>
        </g>
    </g>
</svg>